<?xml version="1.0" encoding="UTF-8" standalone="no"?>
<!-- Created with Inkscape (http://www.inkscape.org/) -->

<svg
   xmlns:dc="http://purl.org/dc/elements/1.1/"
   xmlns:cc="http://creativecommons.org/ns#"
   xmlns:rdf="http://www.w3.org/1999/02/22-rdf-syntax-ns#"
   xmlns:svg="http://www.w3.org/2000/svg"
   xmlns="http://www.w3.org/2000/svg"
   xmlns:sodipodi="http://sodipodi.sourceforge.net/DTD/sodipodi-0.dtd"
   xmlns:inkscape="http://www.inkscape.org/namespaces/inkscape"
   width="1044.1729"
   height="1044.1729"
   id="svg3041"
   version="1.1"
   inkscape:version="0.48.4 r9939"
   sodipodi:docname="logo4b.svg">
  <defs
     id="defs3043">
    <inkscape:path-effect
       effect="bend_path"
       id="path-effect3997"
       is_visible="true"
       bendpath="m 197.14286,843.79074 187.14285,0"
       prop_scale="1"
       scale_y_rel="false"
       vertical="false" />
  </defs>
  <sodipodi:namedview
     id="base"
     pagecolor="#000000"
     bordercolor="#666666"
     borderopacity="1.0"
     inkscape:pageopacity="0.88235294"
     inkscape:pageshadow="2"
     inkscape:zoom="4"
     inkscape:cx="545.78994"
     inkscape:cy="518.96733"
     inkscape:document-units="px"
     inkscape:current-layer="layer1"
     showgrid="false"
     inkscape:window-width="1621"
     inkscape:window-height="960"
     inkscape:window-x="1995"
     inkscape:window-y="47"
     inkscape:window-maximized="0"
     showborder="true"
     fit-margin-top="0"
     fit-margin-left="0"
     fit-margin-right="0"
     fit-margin-bottom="0"
     inkscape:showpageshadow="false" />
  <metadata
     id="metadata3046">
    <rdf:RDF>
      <cc:Work
         rdf:about="">
        <dc:format>image/svg+xml</dc:format>
        <dc:type
           rdf:resource="http://purl.org/dc/dcmitype/StillImage" />
        <dc:title></dc:title>
      </cc:Work>
    </rdf:RDF>
  </metadata>
  <g
     inkscape:label="Layer 1"
     inkscape:groupmode="layer"
     id="layer1"
     transform="translate(144.89545,-93.283741)">
    <path
       style="font-size:medium;font-style:normal;font-variant:normal;font-weight:normal;font-stretch:normal;text-indent:0;text-align:start;text-decoration:none;line-height:normal;letter-spacing:normal;word-spacing:normal;text-transform:none;direction:ltr;block-progression:tb;writing-mode:lr-tb;text-anchor:start;baseline-shift:baseline;color:#000000;fill:#cccccc;fill-opacity:0.03137255;stroke:none;stroke-width:21.77475739;marker:none;visibility:visible;display:inline;overflow:visible;enable-background:accumulate;font-family:Sans;-inkscape-font-specification:Sans"
       d="M 522 425.15625 C 468.54594 425.15625 425 468.70219 425 522.15625 C 425 568.01377 457.04803 606.59038 499.90625 616.625 L 502.09375 596.75 C 469.07569 588.00293 444.84375 557.98584 444.84375 522.15625 C 444.84375 479.43587 479.27962 445.03125 522 445.03125 C 564.72038 445.03125 599.125 479.43587 599.125 522.15625 C 599.125 557.9741 574.9325 587.96062 541.9375 596.71875 L 544.125 616.625 C 586.96991 606.58068 619 568.0043 619 522.15625 C 619 468.70219 575.45406 425.15625 522 425.15625 z "
       transform="translate(-144.89545,93.283741)"
       id="path3895" />
    <path
       style="font-size:medium;font-style:normal;font-variant:normal;font-weight:normal;font-stretch:normal;text-indent:0;text-align:start;text-decoration:none;line-height:normal;letter-spacing:normal;word-spacing:normal;text-transform:none;direction:ltr;block-progression:tb;writing-mode:lr-tb;text-anchor:start;baseline-shift:baseline;color:#000000;fill:#cccccc;fill-opacity:0.03137255;stroke:none;stroke-width:16.16555786;marker:none;visibility:visible;display:inline;overflow:visible;enable-background:accumulate;font-family:Sans;-inkscape-font-specification:Sans"
       d="M 522 360.1875 C 432.67966 360.1875 359.96875 432.83591 359.96875 522.15625 C 359.96875 601.49756 417.3585 667.72151 492.78125 681.53125 L 495.5625 656.3125 C 432.6238 644.03575 385.3125 588.75575 385.3125 522.15625 C 385.3125 446.50489 446.34864 385.46875 522 385.46875 C 597.65136 385.46875 658.71875 446.50489 658.71875 522.15625 C 658.71875 588.73812 611.41375 644.01623 548.5 656.3125 L 551.25 681.53125 C 626.66413 667.72151 684 601.49756 684 522.15625 C 684 432.83591 611.32034 360.1875 522 360.1875 z "
       transform="translate(-144.89545,93.283741)"
       id="path3895-9" />
    <path
       style="font-size:medium;font-style:normal;font-variant:normal;font-weight:normal;font-stretch:normal;text-indent:0;text-align:start;text-decoration:none;line-height:normal;letter-spacing:normal;word-spacing:normal;text-transform:none;direction:ltr;block-progression:tb;writing-mode:lr-tb;text-anchor:start;baseline-shift:baseline;color:#000000;fill:#cccccc;fill-opacity:0.03137255;stroke:none;stroke-width:11.72434711;marker:none;visibility:visible;display:inline;overflow:visible;enable-background:accumulate;font-family:Sans;-inkscape-font-specification:Sans"
       d="M 522.03125 265.1875 C 380.27018 265.1875 264.96875 380.39518 264.96875 522.15625 C 264.96875 650.44145 359.3696 757.04637 482.375 776.15625 L 485.65625 746.5 C 377.31406 729.13618 294.78125 635.46173 294.78125 522.15625 C 294.78125 396.46709 396.34209 294.90625 522.03125 294.90625 C 647.72041 294.90625 749.28125 396.46709 749.28125 522.15625 C 749.28125 635.46173 666.71719 729.13618 558.375 746.5 L 561.65625 776.15625 C 684.64931 757.04637 779 650.44145 779 522.15625 C 779 380.39518 663.79232 265.1875 522.03125 265.1875 z "
       transform="translate(-144.89545,93.283741)"
       id="path3895-9-0" />
    <path
       style="font-size:medium;font-style:normal;font-variant:normal;font-weight:normal;font-stretch:normal;text-indent:0;text-align:start;text-decoration:none;line-height:normal;letter-spacing:normal;word-spacing:normal;text-transform:none;direction:ltr;block-progression:tb;writing-mode:lr-tb;text-anchor:start;baseline-shift:baseline;color:#000000;fill:#cccccc;fill-opacity:0.03137255;stroke:none;stroke-width:9.10302067;marker:none;visibility:visible;display:inline;overflow:visible;enable-background:accumulate;font-family:Sans;-inkscape-font-specification:Sans"
       d="M 522.03125 140.1875 C 311.2644 140.1875 139.96875 311.38939 139.96875 522.15625 C 139.96875 714.83158 283.12366 874.50304 468.71875 900.5 L 472.53125 865.875 C 304.06414 841.89612 174.8125 697.32156 174.8125 522.15625 C 174.8125 330.18036 330.05537 174.90625 522.03125 174.90625 C 714.00713 174.90625 869.25 330.18036 869.25 522.15625 C 869.25 697.33213 739.98201 841.90923 571.5 865.875 L 575.28125 900.5 C 760.88908 874.52968 904 714.85284 904 522.15625 C 904 311.38939 732.79811 140.1875 522.03125 140.1875 z "
       transform="translate(-144.89545,93.283741)"
       id="path3895-9-0-8" />
    <path
       style="font-size:medium;font-style:normal;font-variant:normal;font-weight:normal;font-stretch:normal;text-indent:0;text-align:start;text-decoration:none;line-height:normal;letter-spacing:normal;word-spacing:normal;text-transform:none;direction:ltr;block-progression:tb;writing-mode:lr-tb;text-anchor:start;baseline-shift:baseline;color:#000000;fill:#cccccc;fill-opacity:0.03137255;stroke:none;stroke-width:7.0887742;marker:none;visibility:visible;display:inline;overflow:visible;enable-background:accumulate;font-family:Sans;-inkscape-font-specification:Sans"
       d="M 522.03125 0.15625 C 233.95997 0.15625 0.0625 234.05371 0.0625 522.125 C 0.0625 786.94408 197.73289 1005.9887 453.4375 1039.625 L 457.5 1002.625 C 220.18621 971.09698 37.3125 768.10926 37.3125 522.125 C 37.3125 254.25307 254.15932 37.5625 522.03125 37.5625 C 789.90317 37.5625 1006.625 254.25307 1006.625 522.125 C 1006.625 768.14105 823.83584 971.13723 586.5 1002.625 L 590.5625 1039.625 C 846.30177 1006.0202 1044.0312 786.96878 1044.0312 522.125 C 1044.0312 234.05371 810.10253 0.15625 522.03125 0.15625 z "
       transform="translate(-144.89545,93.283741)"
       id="path3895-9-0-8-6" />
    <path
       style="fill:#cccccc;fill-opacity:0.03137255;stroke:none"
       d="m 373.13064,615.4566 -40.07309,522 43.21215,0 1.7031,0 43.17875,0 -40.03969,-522 -3.13906,0 -1.7031,0 -3.13906,0 z"
       id="path4588"
       inkscape:connector-curvature="0" />
  </g>
</svg>
